<mxfile host="app.diagrams.net" modified="2023-03-10T22:12:45.419Z" agent="5.0 (Windows NT 10.0; Win64; x64) AppleWebKit/537.36 (KHTML, like Gecko) Chrome/111.0.0.0 Safari/537.36" etag="ZV9ruHlFBZrwEbAZfbby" version="21.0.6" type="github">
  <diagram name="Page-1" id="8i7chvborn38YGoW2cre">
    <mxGraphModel dx="1050" dy="489" grid="1" gridSize="10" guides="1" tooltips="1" connect="1" arrows="1" fold="1" page="1" pageScale="1" pageWidth="850" pageHeight="1100" math="0" shadow="0">
      <root>
        <mxCell id="0" />
        <mxCell id="1" parent="0" />
        <mxCell id="c0chUyFTlQN9oDM3whuL-1" value="Word_1" style="shape=process;whiteSpace=wrap;html=1;backgroundOutline=1;fontSize=18;fillColor=#647687;fontColor=#ffffff;strokeColor=#314354;" parent="1" vertex="1">
          <mxGeometry x="158.75" y="200" width="120" height="40" as="geometry" />
        </mxCell>
        <mxCell id="c0chUyFTlQN9oDM3whuL-2" value="Matthew 1:1" style="rounded=0;whiteSpace=wrap;html=1;" parent="1" vertex="1">
          <mxGeometry x="158.75" y="240" width="90" height="30" as="geometry" />
        </mxCell>
        <mxCell id="c0chUyFTlQN9oDM3whuL-3" value="2" style="rounded=0;whiteSpace=wrap;html=1;" parent="1" vertex="1">
          <mxGeometry x="248.75" y="240" width="30" height="30" as="geometry" />
        </mxCell>
        <mxCell id="c0chUyFTlQN9oDM3whuL-4" value="Matthew 1:3" style="rounded=0;whiteSpace=wrap;html=1;" parent="1" vertex="1">
          <mxGeometry x="158.75" y="270" width="90" height="30" as="geometry" />
        </mxCell>
        <mxCell id="c0chUyFTlQN9oDM3whuL-5" value="3" style="rounded=0;whiteSpace=wrap;html=1;" parent="1" vertex="1">
          <mxGeometry x="248.75" y="270" width="30" height="30" as="geometry" />
        </mxCell>
        <mxCell id="c0chUyFTlQN9oDM3whuL-6" value="Matthew 12:10" style="rounded=0;whiteSpace=wrap;html=1;" parent="1" vertex="1">
          <mxGeometry x="158.75" y="300" width="90" height="30" as="geometry" />
        </mxCell>
        <mxCell id="c0chUyFTlQN9oDM3whuL-7" value="1" style="rounded=0;whiteSpace=wrap;html=1;" parent="1" vertex="1">
          <mxGeometry x="248.75" y="300" width="30" height="30" as="geometry" />
        </mxCell>
        <mxCell id="c0chUyFTlQN9oDM3whuL-8" value="" style="shape=document;whiteSpace=wrap;html=1;boundedLbl=1;size=0.5;" parent="1" vertex="1">
          <mxGeometry x="158.75" y="330" width="120" height="20" as="geometry" />
        </mxCell>
        <mxCell id="c0chUyFTlQN9oDM3whuL-9" value="Word_2" style="shape=process;whiteSpace=wrap;html=1;backgroundOutline=1;fontSize=18;fillColor=#647687;fontColor=#ffffff;strokeColor=#314354;" parent="1" vertex="1">
          <mxGeometry x="320" y="200" width="120" height="40" as="geometry" />
        </mxCell>
        <mxCell id="c0chUyFTlQN9oDM3whuL-10" value="Matthew 1:1" style="rounded=0;whiteSpace=wrap;html=1;" parent="1" vertex="1">
          <mxGeometry x="320" y="240" width="90" height="30" as="geometry" />
        </mxCell>
        <mxCell id="c0chUyFTlQN9oDM3whuL-11" value="1" style="rounded=0;whiteSpace=wrap;html=1;" parent="1" vertex="1">
          <mxGeometry x="410" y="240" width="30" height="30" as="geometry" />
        </mxCell>
        <mxCell id="c0chUyFTlQN9oDM3whuL-12" value="Matthew 8:4" style="rounded=0;whiteSpace=wrap;html=1;" parent="1" vertex="1">
          <mxGeometry x="320" y="270" width="90" height="30" as="geometry" />
        </mxCell>
        <mxCell id="c0chUyFTlQN9oDM3whuL-13" value="1" style="rounded=0;whiteSpace=wrap;html=1;" parent="1" vertex="1">
          <mxGeometry x="410" y="270" width="30" height="30" as="geometry" />
        </mxCell>
        <mxCell id="c0chUyFTlQN9oDM3whuL-14" value="Matthew 16:7" style="rounded=0;whiteSpace=wrap;html=1;" parent="1" vertex="1">
          <mxGeometry x="320" y="300" width="90" height="30" as="geometry" />
        </mxCell>
        <mxCell id="c0chUyFTlQN9oDM3whuL-15" value="2" style="rounded=0;whiteSpace=wrap;html=1;" parent="1" vertex="1">
          <mxGeometry x="410" y="300" width="30" height="30" as="geometry" />
        </mxCell>
        <mxCell id="c0chUyFTlQN9oDM3whuL-16" value="" style="shape=document;whiteSpace=wrap;html=1;boundedLbl=1;size=0.5;" parent="1" vertex="1">
          <mxGeometry x="320" y="330" width="120" height="20" as="geometry" />
        </mxCell>
        <mxCell id="c0chUyFTlQN9oDM3whuL-17" value="Word_3" style="shape=process;whiteSpace=wrap;html=1;backgroundOutline=1;fontSize=18;fillColor=#647687;fontColor=#ffffff;strokeColor=#314354;" parent="1" vertex="1">
          <mxGeometry x="480" y="200" width="120" height="40" as="geometry" />
        </mxCell>
        <mxCell id="c0chUyFTlQN9oDM3whuL-18" value="Matthew 1:1" style="rounded=0;whiteSpace=wrap;html=1;" parent="1" vertex="1">
          <mxGeometry x="480" y="240" width="90" height="30" as="geometry" />
        </mxCell>
        <mxCell id="c0chUyFTlQN9oDM3whuL-19" value="3" style="rounded=0;whiteSpace=wrap;html=1;" parent="1" vertex="1">
          <mxGeometry x="570" y="240" width="30" height="30" as="geometry" />
        </mxCell>
        <mxCell id="c0chUyFTlQN9oDM3whuL-20" value="Matthew 1:3" style="rounded=0;whiteSpace=wrap;html=1;" parent="1" vertex="1">
          <mxGeometry x="480" y="270" width="90" height="30" as="geometry" />
        </mxCell>
        <mxCell id="c0chUyFTlQN9oDM3whuL-21" value="1" style="rounded=0;whiteSpace=wrap;html=1;" parent="1" vertex="1">
          <mxGeometry x="570" y="270" width="30" height="30" as="geometry" />
        </mxCell>
        <mxCell id="c0chUyFTlQN9oDM3whuL-22" value="Mark 2:8" style="rounded=0;whiteSpace=wrap;html=1;" parent="1" vertex="1">
          <mxGeometry x="480" y="300" width="90" height="30" as="geometry" />
        </mxCell>
        <mxCell id="c0chUyFTlQN9oDM3whuL-23" value="2" style="rounded=0;whiteSpace=wrap;html=1;" parent="1" vertex="1">
          <mxGeometry x="570" y="300" width="30" height="30" as="geometry" />
        </mxCell>
        <mxCell id="c0chUyFTlQN9oDM3whuL-24" value="" style="shape=document;whiteSpace=wrap;html=1;boundedLbl=1;size=0.5;" parent="1" vertex="1">
          <mxGeometry x="480" y="330" width="120" height="20" as="geometry" />
        </mxCell>
        <mxCell id="c0chUyFTlQN9oDM3whuL-103" style="edgeStyle=orthogonalEdgeStyle;rounded=0;orthogonalLoop=1;jettySize=auto;html=1;exitX=1;exitY=0.5;exitDx=0;exitDy=0;entryX=0.5;entryY=0;entryDx=0;entryDy=0;" parent="1" source="c0chUyFTlQN9oDM3whuL-30" target="c0chUyFTlQN9oDM3whuL-102" edge="1">
          <mxGeometry relative="1" as="geometry">
            <Array as="points">
              <mxPoint x="650" y="60" />
              <mxPoint x="650" y="410" />
              <mxPoint x="365" y="410" />
            </Array>
          </mxGeometry>
        </mxCell>
        <mxCell id="c0chUyFTlQN9oDM3whuL-30" value="Line 0.1" style="rounded=0;whiteSpace=wrap;html=1;fillColor=#76608a;fontColor=#ffffff;strokeColor=#432D57;" parent="1" vertex="1">
          <mxGeometry x="495" y="45" width="90" height="30" as="geometry" />
        </mxCell>
        <mxCell id="c0chUyFTlQN9oDM3whuL-32" style="edgeStyle=orthogonalEdgeStyle;rounded=0;orthogonalLoop=1;jettySize=auto;html=1;exitX=1;exitY=0.5;exitDx=0;exitDy=0;entryX=0;entryY=0.5;entryDx=0;entryDy=0;" parent="1" source="c0chUyFTlQN9oDM3whuL-31" target="c0chUyFTlQN9oDM3whuL-30" edge="1">
          <mxGeometry relative="1" as="geometry" />
        </mxCell>
        <mxCell id="c0chUyFTlQN9oDM3whuL-42" style="edgeStyle=orthogonalEdgeStyle;rounded=0;orthogonalLoop=1;jettySize=auto;html=1;exitX=0.5;exitY=1;exitDx=0;exitDy=0;entryX=0.5;entryY=0;entryDx=0;entryDy=0;" parent="1" source="c0chUyFTlQN9oDM3whuL-31" target="c0chUyFTlQN9oDM3whuL-33" edge="1">
          <mxGeometry relative="1" as="geometry" />
        </mxCell>
        <mxCell id="c0chUyFTlQN9oDM3whuL-43" style="edgeStyle=orthogonalEdgeStyle;rounded=0;orthogonalLoop=1;jettySize=auto;html=1;exitX=0.5;exitY=1;exitDx=0;exitDy=0;entryX=0.5;entryY=0;entryDx=0;entryDy=0;" parent="1" source="c0chUyFTlQN9oDM3whuL-31" target="c0chUyFTlQN9oDM3whuL-35" edge="1">
          <mxGeometry relative="1" as="geometry" />
        </mxCell>
        <mxCell id="c0chUyFTlQN9oDM3whuL-44" style="edgeStyle=orthogonalEdgeStyle;rounded=0;orthogonalLoop=1;jettySize=auto;html=1;exitX=0.5;exitY=1;exitDx=0;exitDy=0;entryX=0.5;entryY=0;entryDx=0;entryDy=0;" parent="1" source="c0chUyFTlQN9oDM3whuL-31" target="c0chUyFTlQN9oDM3whuL-36" edge="1">
          <mxGeometry relative="1" as="geometry" />
        </mxCell>
        <mxCell id="c0chUyFTlQN9oDM3whuL-31" value="Clause_1" style="shape=process;whiteSpace=wrap;html=1;backgroundOutline=1;fontSize=18;fillColor=#647687;fontColor=#ffffff;strokeColor=#314354;" parent="1" vertex="1">
          <mxGeometry x="320" y="40" width="120" height="40" as="geometry" />
        </mxCell>
        <mxCell id="c0chUyFTlQN9oDM3whuL-37" style="edgeStyle=orthogonalEdgeStyle;rounded=0;orthogonalLoop=1;jettySize=auto;html=1;exitX=0.5;exitY=1;exitDx=0;exitDy=0;entryX=0.5;entryY=0;entryDx=0;entryDy=0;" parent="1" source="c0chUyFTlQN9oDM3whuL-33" target="c0chUyFTlQN9oDM3whuL-1" edge="1">
          <mxGeometry relative="1" as="geometry" />
        </mxCell>
        <mxCell id="c0chUyFTlQN9oDM3whuL-40" style="edgeStyle=orthogonalEdgeStyle;rounded=0;orthogonalLoop=1;jettySize=auto;html=1;exitX=1;exitY=0.5;exitDx=0;exitDy=0;entryX=0;entryY=0.5;entryDx=0;entryDy=0;endArrow=none;endFill=0;" parent="1" source="c0chUyFTlQN9oDM3whuL-33" target="c0chUyFTlQN9oDM3whuL-35" edge="1">
          <mxGeometry relative="1" as="geometry" />
        </mxCell>
        <mxCell id="c0chUyFTlQN9oDM3whuL-33" value="Word_1" style="rounded=0;whiteSpace=wrap;html=1;" parent="1" vertex="1">
          <mxGeometry x="173.75" y="120" width="90" height="30" as="geometry" />
        </mxCell>
        <mxCell id="c0chUyFTlQN9oDM3whuL-38" style="edgeStyle=orthogonalEdgeStyle;rounded=0;orthogonalLoop=1;jettySize=auto;html=1;exitX=0.5;exitY=1;exitDx=0;exitDy=0;entryX=0.5;entryY=0;entryDx=0;entryDy=0;" parent="1" source="c0chUyFTlQN9oDM3whuL-35" target="c0chUyFTlQN9oDM3whuL-9" edge="1">
          <mxGeometry relative="1" as="geometry" />
        </mxCell>
        <mxCell id="c0chUyFTlQN9oDM3whuL-41" style="edgeStyle=orthogonalEdgeStyle;rounded=0;orthogonalLoop=1;jettySize=auto;html=1;exitX=1;exitY=0.5;exitDx=0;exitDy=0;entryX=0;entryY=0.5;entryDx=0;entryDy=0;endArrow=none;endFill=0;" parent="1" source="c0chUyFTlQN9oDM3whuL-35" target="c0chUyFTlQN9oDM3whuL-36" edge="1">
          <mxGeometry relative="1" as="geometry" />
        </mxCell>
        <mxCell id="c0chUyFTlQN9oDM3whuL-35" value="Word_2" style="rounded=0;whiteSpace=wrap;html=1;" parent="1" vertex="1">
          <mxGeometry x="335" y="120" width="90" height="30" as="geometry" />
        </mxCell>
        <mxCell id="c0chUyFTlQN9oDM3whuL-39" style="edgeStyle=orthogonalEdgeStyle;rounded=0;orthogonalLoop=1;jettySize=auto;html=1;exitX=0.5;exitY=1;exitDx=0;exitDy=0;entryX=0.5;entryY=0;entryDx=0;entryDy=0;" parent="1" source="c0chUyFTlQN9oDM3whuL-36" target="c0chUyFTlQN9oDM3whuL-17" edge="1">
          <mxGeometry relative="1" as="geometry" />
        </mxCell>
        <mxCell id="c0chUyFTlQN9oDM3whuL-36" value="Word_3" style="rounded=0;whiteSpace=wrap;html=1;" parent="1" vertex="1">
          <mxGeometry x="495" y="120" width="90" height="30" as="geometry" />
        </mxCell>
        <mxCell id="c0chUyFTlQN9oDM3whuL-46" value="" style="strokeWidth=2;html=1;shape=mxgraph.flowchart.annotation_1;align=left;pointerEvents=1;" parent="1" vertex="1">
          <mxGeometry x="108.75" y="40" width="20" height="110" as="geometry" />
        </mxCell>
        <mxCell id="c0chUyFTlQN9oDM3whuL-47" value="Clause List" style="text;html=1;strokeColor=none;fillColor=none;align=center;verticalAlign=middle;whiteSpace=wrap;rounded=0;rotation=-90;fontSize=20;" parent="1" vertex="1">
          <mxGeometry x="38.75" y="80" width="110" height="30" as="geometry" />
        </mxCell>
        <mxCell id="c0chUyFTlQN9oDM3whuL-48" value="" style="strokeWidth=2;html=1;shape=mxgraph.flowchart.annotation_1;align=left;pointerEvents=1;" parent="1" vertex="1">
          <mxGeometry x="108.75" y="200" width="20" height="150" as="geometry" />
        </mxCell>
        <mxCell id="c0chUyFTlQN9oDM3whuL-49" value="Word List" style="text;html=1;strokeColor=none;fillColor=none;align=center;verticalAlign=middle;whiteSpace=wrap;rounded=0;rotation=-90;fontSize=20;" parent="1" vertex="1">
          <mxGeometry x="20" y="258.75" width="147.5" height="30" as="geometry" />
        </mxCell>
        <mxCell id="c0chUyFTlQN9oDM3whuL-79" style="edgeStyle=orthogonalEdgeStyle;rounded=0;orthogonalLoop=1;jettySize=auto;html=1;exitX=0;exitY=0.5;exitDx=0;exitDy=0;exitPerimeter=0;entryX=0;entryY=0.5;entryDx=0;entryDy=0;entryPerimeter=0;" parent="1" source="c0chUyFTlQN9oDM3whuL-51" target="c0chUyFTlQN9oDM3whuL-78" edge="1">
          <mxGeometry relative="1" as="geometry">
            <Array as="points">
              <mxPoint x="300" y="295" />
              <mxPoint x="300" y="380" />
              <mxPoint x="219" y="380" />
            </Array>
          </mxGeometry>
        </mxCell>
        <mxCell id="c0chUyFTlQN9oDM3whuL-51" value="" style="strokeWidth=1;html=1;shape=mxgraph.flowchart.annotation_2;align=left;labelPosition=right;pointerEvents=1;rotation=-180;" parent="1" vertex="1">
          <mxGeometry x="278.75" y="240" width="15" height="110" as="geometry" />
        </mxCell>
        <mxCell id="c0chUyFTlQN9oDM3whuL-82" style="edgeStyle=orthogonalEdgeStyle;rounded=0;orthogonalLoop=1;jettySize=auto;html=1;exitX=0;exitY=0.5;exitDx=0;exitDy=0;exitPerimeter=0;entryX=0;entryY=0.5;entryDx=0;entryDy=0;entryPerimeter=0;" parent="1" source="c0chUyFTlQN9oDM3whuL-52" target="c0chUyFTlQN9oDM3whuL-78" edge="1">
          <mxGeometry relative="1" as="geometry">
            <Array as="points">
              <mxPoint x="460" y="295" />
              <mxPoint x="460" y="380" />
              <mxPoint x="219" y="380" />
            </Array>
          </mxGeometry>
        </mxCell>
        <mxCell id="c0chUyFTlQN9oDM3whuL-52" value="" style="strokeWidth=1;html=1;shape=mxgraph.flowchart.annotation_2;align=left;labelPosition=right;pointerEvents=1;rotation=-180;" parent="1" vertex="1">
          <mxGeometry x="440" y="240" width="15" height="110" as="geometry" />
        </mxCell>
        <mxCell id="c0chUyFTlQN9oDM3whuL-84" style="edgeStyle=orthogonalEdgeStyle;rounded=0;orthogonalLoop=1;jettySize=auto;html=1;exitX=0;exitY=0.5;exitDx=0;exitDy=0;exitPerimeter=0;entryX=0;entryY=0.5;entryDx=0;entryDy=0;entryPerimeter=0;" parent="1" source="c0chUyFTlQN9oDM3whuL-53" target="c0chUyFTlQN9oDM3whuL-78" edge="1">
          <mxGeometry relative="1" as="geometry">
            <Array as="points">
              <mxPoint x="620" y="295" />
              <mxPoint x="620" y="380" />
              <mxPoint x="219" y="380" />
            </Array>
          </mxGeometry>
        </mxCell>
        <mxCell id="c0chUyFTlQN9oDM3whuL-53" value="" style="strokeWidth=1;html=1;shape=mxgraph.flowchart.annotation_2;align=left;labelPosition=right;pointerEvents=1;rotation=-180;" parent="1" vertex="1">
          <mxGeometry x="600" y="240" width="15" height="110" as="geometry" />
        </mxCell>
        <mxCell id="c0chUyFTlQN9oDM3whuL-54" value="Matthew 1:1" style="rounded=0;whiteSpace=wrap;html=1;" parent="1" vertex="1">
          <mxGeometry x="158.75" y="440" width="90" height="30" as="geometry" />
        </mxCell>
        <mxCell id="c0chUyFTlQN9oDM3whuL-55" value="6" style="rounded=0;whiteSpace=wrap;html=1;" parent="1" vertex="1">
          <mxGeometry x="248.75" y="440" width="30" height="30" as="geometry" />
        </mxCell>
        <mxCell id="c0chUyFTlQN9oDM3whuL-56" value="Matthew 1:3" style="rounded=0;whiteSpace=wrap;html=1;" parent="1" vertex="1">
          <mxGeometry x="158.75" y="470" width="90" height="30" as="geometry" />
        </mxCell>
        <mxCell id="c0chUyFTlQN9oDM3whuL-57" value="4" style="rounded=0;whiteSpace=wrap;html=1;" parent="1" vertex="1">
          <mxGeometry x="248.75" y="470" width="30" height="30" as="geometry" />
        </mxCell>
        <mxCell id="c0chUyFTlQN9oDM3whuL-58" value="Matthew 12:10" style="rounded=0;whiteSpace=wrap;html=1;" parent="1" vertex="1">
          <mxGeometry x="158.75" y="500" width="90" height="30" as="geometry" />
        </mxCell>
        <mxCell id="c0chUyFTlQN9oDM3whuL-59" value="1" style="rounded=0;whiteSpace=wrap;html=1;" parent="1" vertex="1">
          <mxGeometry x="248.75" y="500" width="30" height="30" as="geometry" />
        </mxCell>
        <mxCell id="c0chUyFTlQN9oDM3whuL-63" value="Matthew 8:4" style="rounded=0;whiteSpace=wrap;html=1;" parent="1" vertex="1">
          <mxGeometry x="158.75" y="530" width="90" height="30" as="geometry" />
        </mxCell>
        <mxCell id="c0chUyFTlQN9oDM3whuL-64" value="1" style="rounded=0;whiteSpace=wrap;html=1;" parent="1" vertex="1">
          <mxGeometry x="248.75" y="530" width="30" height="30" as="geometry" />
        </mxCell>
        <mxCell id="c0chUyFTlQN9oDM3whuL-65" value="Matthew 16:7" style="rounded=0;whiteSpace=wrap;html=1;" parent="1" vertex="1">
          <mxGeometry x="158.75" y="560" width="90" height="30" as="geometry" />
        </mxCell>
        <mxCell id="c0chUyFTlQN9oDM3whuL-66" value="2" style="rounded=0;whiteSpace=wrap;html=1;" parent="1" vertex="1">
          <mxGeometry x="248.75" y="560" width="30" height="30" as="geometry" />
        </mxCell>
        <mxCell id="c0chUyFTlQN9oDM3whuL-70" value="Mark 2:8" style="rounded=0;whiteSpace=wrap;html=1;" parent="1" vertex="1">
          <mxGeometry x="158.75" y="590" width="90" height="30" as="geometry" />
        </mxCell>
        <mxCell id="c0chUyFTlQN9oDM3whuL-71" value="2" style="rounded=0;whiteSpace=wrap;html=1;" parent="1" vertex="1">
          <mxGeometry x="248.75" y="590" width="30" height="30" as="geometry" />
        </mxCell>
        <mxCell id="c0chUyFTlQN9oDM3whuL-74" value="" style="shape=document;whiteSpace=wrap;html=1;boundedLbl=1;size=0.5;" parent="1" vertex="1">
          <mxGeometry x="158.75" y="620" width="120" height="20" as="geometry" />
        </mxCell>
        <mxCell id="c0chUyFTlQN9oDM3whuL-78" value="" style="strokeWidth=2;html=1;shape=mxgraph.flowchart.annotation_2;align=left;labelPosition=right;pointerEvents=1;rotation=90;" parent="1" vertex="1">
          <mxGeometry x="206.75" y="363.75" width="24" height="122.5" as="geometry" />
        </mxCell>
        <mxCell id="c0chUyFTlQN9oDM3whuL-102" value="Line 0.1" style="rounded=0;whiteSpace=wrap;html=1;fillColor=#76608a;fontColor=#ffffff;strokeColor=#432D57;" parent="1" vertex="1">
          <mxGeometry x="320" y="610" width="90" height="30" as="geometry" />
        </mxCell>
        <mxCell id="c0chUyFTlQN9oDM3whuL-105" value="" style="strokeWidth=2;html=1;shape=mxgraph.flowchart.annotation_1;align=left;pointerEvents=1;" parent="1" vertex="1">
          <mxGeometry x="108.75" y="425" width="20" height="215" as="geometry" />
        </mxCell>
        <mxCell id="c0chUyFTlQN9oDM3whuL-106" value="Data Synthesis" style="text;html=1;strokeColor=none;fillColor=none;align=center;verticalAlign=middle;whiteSpace=wrap;rounded=0;rotation=-90;fontSize=20;" parent="1" vertex="1">
          <mxGeometry x="-16.87" y="520.63" width="217.5" height="26.25" as="geometry" />
        </mxCell>
        <mxCell id="c0chUyFTlQN9oDM3whuL-112" style="edgeStyle=orthogonalEdgeStyle;rounded=0;orthogonalLoop=1;jettySize=auto;html=1;exitX=0;exitY=0.5;exitDx=0;exitDy=0;exitPerimeter=0;entryX=0.5;entryY=0;entryDx=0;entryDy=0;entryPerimeter=0;" parent="1" source="c0chUyFTlQN9oDM3whuL-107" target="c0chUyFTlQN9oDM3whuL-111" edge="1">
          <mxGeometry relative="1" as="geometry" />
        </mxCell>
        <mxCell id="c0chUyFTlQN9oDM3whuL-107" value="" style="strokeWidth=1;html=1;shape=mxgraph.flowchart.annotation_2;align=left;labelPosition=right;pointerEvents=1;rotation=-90;" parent="1" vertex="1">
          <mxGeometry x="268.13" y="538.63" width="32" height="249.75" as="geometry" />
        </mxCell>
        <mxCell id="c0chUyFTlQN9oDM3whuL-111" value="&lt;i&gt;&lt;font style=&quot;font-size: 14px;&quot;&gt;&lt;b&gt;prob_analysis_raw.pkl&lt;/b&gt;&lt;/font&gt;&lt;/i&gt;" style="shape=cylinder3;whiteSpace=wrap;html=1;boundedLbl=1;backgroundOutline=1;size=15;fillColor=#a20025;fontColor=#ffffff;strokeColor=#6F0000;" parent="1" vertex="1">
          <mxGeometry x="201.2" y="710" width="165.87" height="70" as="geometry" />
        </mxCell>
      </root>
    </mxGraphModel>
  </diagram>
</mxfile>
